<mxfile host="app.diagrams.net" modified="2023-10-12T08:13:04.176Z" agent="Mozilla/5.0 (Windows NT 10.0; Win64; x64) AppleWebKit/537.36 (KHTML, like Gecko) Chrome/109.0.0.0 Safari/537.36" etag="mVdYJlrtoBum-2nxfiXi" version="22.0.4" type="github" pages="3">
  <diagram name="第 1 页" id="GnJPuIYjDnsLOGgnS9-f">
    <mxGraphModel dx="1434" dy="764" grid="1" gridSize="10" guides="1" tooltips="1" connect="1" arrows="1" fold="1" page="1" pageScale="1" pageWidth="827" pageHeight="1169" math="0" shadow="0">
      <root>
        <mxCell id="0" />
        <mxCell id="1" parent="0" />
        <mxCell id="WTIW7XLnkDqzvY68BNEf-4" value="管理员" style="html=1;dashed=0;whiteSpace=wrap;" parent="1" vertex="1">
          <mxGeometry x="90" y="210" width="100" height="50" as="geometry" />
        </mxCell>
        <mxCell id="WTIW7XLnkDqzvY68BNEf-6" value="订户" style="html=1;dashed=0;whiteSpace=wrap;" parent="1" vertex="1">
          <mxGeometry x="610" y="355" width="100" height="50" as="geometry" />
        </mxCell>
        <mxCell id="WTIW7XLnkDqzvY68BNEf-7" value="订户" style="html=1;dashed=0;whiteSpace=wrap;" parent="1" vertex="1">
          <mxGeometry x="90" y="490" width="100" height="50" as="geometry" />
        </mxCell>
        <mxCell id="WTIW7XLnkDqzvY68BNEf-8" value="图书征订" style="shape=ellipse;html=1;dashed=0;whiteSpace=wrap;perimeter=ellipsePerimeter;" parent="1" vertex="1">
          <mxGeometry x="320" y="340" width="120" height="80" as="geometry" />
        </mxCell>
        <mxCell id="WTIW7XLnkDqzvY68BNEf-10" value="" style="endArrow=classic;html=1;exitX=1;exitY=0.5;exitDx=0;exitDy=0;entryX=0;entryY=0;entryDx=0;entryDy=0;curved=1;" parent="1" source="WTIW7XLnkDqzvY68BNEf-4" target="WTIW7XLnkDqzvY68BNEf-8" edge="1">
          <mxGeometry width="50" height="50" relative="1" as="geometry">
            <mxPoint x="250" y="370" as="sourcePoint" />
            <mxPoint x="360" y="380" as="targetPoint" />
            <Array as="points">
              <mxPoint x="280" y="260" />
            </Array>
          </mxGeometry>
        </mxCell>
        <mxCell id="WTIW7XLnkDqzvY68BNEf-11" value="" style="endArrow=classic;html=1;entryX=1;entryY=0.5;entryDx=0;entryDy=0;exitX=0;exitY=1;exitDx=0;exitDy=0;curved=1;" parent="1" source="WTIW7XLnkDqzvY68BNEf-8" target="WTIW7XLnkDqzvY68BNEf-7" edge="1">
          <mxGeometry width="50" height="50" relative="1" as="geometry">
            <mxPoint x="210" y="560" as="sourcePoint" />
            <mxPoint x="260" y="510" as="targetPoint" />
            <Array as="points">
              <mxPoint x="280" y="480" />
            </Array>
          </mxGeometry>
        </mxCell>
        <mxCell id="WTIW7XLnkDqzvY68BNEf-12" value="" style="endArrow=classic;html=1;exitX=0.5;exitY=0;exitDx=0;exitDy=0;entryX=1;entryY=0;entryDx=0;entryDy=0;curved=1;" parent="1" source="WTIW7XLnkDqzvY68BNEf-6" target="WTIW7XLnkDqzvY68BNEf-8" edge="1">
          <mxGeometry width="50" height="50" relative="1" as="geometry">
            <mxPoint x="680" y="585" as="sourcePoint" />
            <mxPoint x="730" y="535" as="targetPoint" />
            <Array as="points">
              <mxPoint x="540" y="210" />
            </Array>
          </mxGeometry>
        </mxCell>
        <mxCell id="WTIW7XLnkDqzvY68BNEf-13" value="" style="endArrow=classic;html=1;exitX=1;exitY=1;exitDx=0;exitDy=0;entryX=0.5;entryY=1;entryDx=0;entryDy=0;curved=1;" parent="1" source="WTIW7XLnkDqzvY68BNEf-8" target="WTIW7XLnkDqzvY68BNEf-6" edge="1">
          <mxGeometry width="50" height="50" relative="1" as="geometry">
            <mxPoint x="590" y="280" as="sourcePoint" />
            <mxPoint x="540" y="570" as="targetPoint" />
            <Array as="points">
              <mxPoint x="530" y="550" />
            </Array>
          </mxGeometry>
        </mxCell>
        <mxCell id="WTIW7XLnkDqzvY68BNEf-14" value="图书信息" style="text;html=1;align=center;verticalAlign=middle;resizable=0;points=[];autosize=1;strokeColor=none;fillColor=none;rotation=0;" parent="1" vertex="1">
          <mxGeometry x="250" y="250" width="70" height="30" as="geometry" />
        </mxCell>
        <mxCell id="WTIW7XLnkDqzvY68BNEf-15" value="图书清单" style="text;html=1;align=center;verticalAlign=middle;resizable=0;points=[];autosize=1;strokeColor=none;fillColor=none;" parent="1" vertex="1">
          <mxGeometry x="245" y="458" width="70" height="30" as="geometry" />
        </mxCell>
        <mxCell id="WTIW7XLnkDqzvY68BNEf-16" value="订书请求" style="text;html=1;align=center;verticalAlign=middle;resizable=0;points=[];autosize=1;strokeColor=none;fillColor=none;" parent="1" vertex="1">
          <mxGeometry x="505" y="258" width="70" height="30" as="geometry" />
        </mxCell>
        <mxCell id="WTIW7XLnkDqzvY68BNEf-17" value="订单" style="text;html=1;align=center;verticalAlign=middle;resizable=0;points=[];autosize=1;strokeColor=none;fillColor=none;" parent="1" vertex="1">
          <mxGeometry x="505" y="478" width="50" height="30" as="geometry" />
        </mxCell>
        <mxCell id="WTIW7XLnkDqzvY68BNEf-18" value="图书征订系统顶层数据流图" style="text;html=1;align=center;verticalAlign=middle;resizable=0;points=[];autosize=1;strokeColor=none;fillColor=none;fontSize=18;" parent="1" vertex="1">
          <mxGeometry x="15" y="45" width="240" height="40" as="geometry" />
        </mxCell>
      </root>
    </mxGraphModel>
  </diagram>
  <diagram id="l1HhH8MkNHGjiY6Bd_Ek" name="第 2 页">
    <mxGraphModel dx="989" dy="527" grid="1" gridSize="10" guides="1" tooltips="1" connect="1" arrows="1" fold="1" page="1" pageScale="1" pageWidth="827" pageHeight="1169" math="0" shadow="0">
      <root>
        <mxCell id="0" />
        <mxCell id="1" parent="0" />
        <mxCell id="gi2HxUZvkKw9CPgbURjt-1" value="图书信息" style="html=1;dashed=0;whiteSpace=wrap;shape=partialRectangle;right=0;left=0;" parent="1" vertex="1">
          <mxGeometry x="350" y="250" width="100" height="30" as="geometry" />
        </mxCell>
        <mxCell id="gi2HxUZvkKw9CPgbURjt-2" value="1&lt;br&gt;图书发布" style="shape=ellipse;html=1;dashed=0;whiteSpace=wrap;perimeter=ellipsePerimeter;" parent="1" vertex="1">
          <mxGeometry x="170" y="420" width="80" height="50" as="geometry" />
        </mxCell>
        <mxCell id="gi2HxUZvkKw9CPgbURjt-3" value="2&lt;br&gt;图书征订" style="shape=ellipse;html=1;dashed=0;whiteSpace=wrap;perimeter=ellipsePerimeter;" parent="1" vertex="1">
          <mxGeometry x="520" y="420" width="80" height="50" as="geometry" />
        </mxCell>
        <mxCell id="gi2HxUZvkKw9CPgbURjt-5" value="" style="endArrow=classic;html=1;exitX=1;exitY=0;exitDx=0;exitDy=0;entryX=0.25;entryY=1;entryDx=0;entryDy=0;curved=1;" parent="1" source="gi2HxUZvkKw9CPgbURjt-2" target="gi2HxUZvkKw9CPgbURjt-1" edge="1">
          <mxGeometry width="50" height="50" relative="1" as="geometry">
            <mxPoint x="200" y="340" as="sourcePoint" />
            <mxPoint x="250" y="290" as="targetPoint" />
            <Array as="points">
              <mxPoint x="250" y="300" />
            </Array>
          </mxGeometry>
        </mxCell>
        <mxCell id="gi2HxUZvkKw9CPgbURjt-6" value="" style="endArrow=classic;html=1;exitX=0.5;exitY=1;exitDx=0;exitDy=0;entryX=1;entryY=0.5;entryDx=0;entryDy=0;curved=1;" parent="1" source="gi2HxUZvkKw9CPgbURjt-1" target="gi2HxUZvkKw9CPgbURjt-2" edge="1">
          <mxGeometry width="50" height="50" relative="1" as="geometry">
            <mxPoint x="380" y="420" as="sourcePoint" />
            <mxPoint x="430" y="370" as="targetPoint" />
            <Array as="points">
              <mxPoint x="360" y="430" />
            </Array>
          </mxGeometry>
        </mxCell>
        <mxCell id="gi2HxUZvkKw9CPgbURjt-7" value="" style="endArrow=classic;html=1;exitX=0.75;exitY=1;exitDx=0;exitDy=0;entryX=0;entryY=0;entryDx=0;entryDy=0;curved=1;" parent="1" source="gi2HxUZvkKw9CPgbURjt-1" target="gi2HxUZvkKw9CPgbURjt-3" edge="1">
          <mxGeometry width="50" height="50" relative="1" as="geometry">
            <mxPoint x="430" y="550" as="sourcePoint" />
            <mxPoint x="480" y="500" as="targetPoint" />
            <Array as="points">
              <mxPoint x="470" y="400" />
            </Array>
          </mxGeometry>
        </mxCell>
        <mxCell id="qxCmKYgzLAo6J0Ybhflr-1" value="" style="endArrow=classic;html=1;rounded=0;entryX=0;entryY=0;entryDx=0;entryDy=0;" edge="1" parent="1" target="gi2HxUZvkKw9CPgbURjt-2">
          <mxGeometry width="50" height="50" relative="1" as="geometry">
            <mxPoint x="40" y="427" as="sourcePoint" />
            <mxPoint x="110" y="440" as="targetPoint" />
          </mxGeometry>
        </mxCell>
        <mxCell id="qxCmKYgzLAo6J0Ybhflr-3" value="" style="endArrow=classic;html=1;rounded=0;exitX=0;exitY=1;exitDx=0;exitDy=0;" edge="1" parent="1" source="gi2HxUZvkKw9CPgbURjt-2">
          <mxGeometry width="50" height="50" relative="1" as="geometry">
            <mxPoint x="40" y="460" as="sourcePoint" />
            <mxPoint x="40" y="463" as="targetPoint" />
          </mxGeometry>
        </mxCell>
        <mxCell id="qxCmKYgzLAo6J0Ybhflr-4" value="图书信息" style="text;html=1;align=center;verticalAlign=middle;resizable=0;points=[];autosize=1;strokeColor=none;fillColor=none;" vertex="1" parent="1">
          <mxGeometry x="65" y="400" width="70" height="30" as="geometry" />
        </mxCell>
        <mxCell id="qxCmKYgzLAo6J0Ybhflr-5" value="图书清单" style="text;html=1;align=center;verticalAlign=middle;resizable=0;points=[];autosize=1;strokeColor=none;fillColor=none;" vertex="1" parent="1">
          <mxGeometry x="65" y="460" width="70" height="30" as="geometry" />
        </mxCell>
        <mxCell id="qxCmKYgzLAo6J0Ybhflr-6" value="图书&lt;br&gt;信息" style="text;html=1;align=center;verticalAlign=middle;resizable=0;points=[];autosize=1;strokeColor=none;fillColor=none;" vertex="1" parent="1">
          <mxGeometry x="260" y="325" width="50" height="40" as="geometry" />
        </mxCell>
        <mxCell id="qxCmKYgzLAo6J0Ybhflr-7" value="汇总&lt;br&gt;信息" style="text;html=1;align=center;verticalAlign=middle;resizable=0;points=[];autosize=1;strokeColor=none;fillColor=none;" vertex="1" parent="1">
          <mxGeometry x="325" y="373" width="50" height="40" as="geometry" />
        </mxCell>
        <mxCell id="qxCmKYgzLAo6J0Ybhflr-8" value="图书&lt;br&gt;信息" style="text;html=1;align=center;verticalAlign=middle;resizable=0;points=[];autosize=1;strokeColor=none;fillColor=none;" vertex="1" parent="1">
          <mxGeometry x="435" y="333" width="50" height="40" as="geometry" />
        </mxCell>
        <mxCell id="qxCmKYgzLAo6J0Ybhflr-9" value="" style="endArrow=classic;html=1;rounded=0;entryX=0.875;entryY=0.2;entryDx=0;entryDy=0;entryPerimeter=0;" edge="1" parent="1" target="gi2HxUZvkKw9CPgbURjt-3">
          <mxGeometry width="50" height="50" relative="1" as="geometry">
            <mxPoint x="680" y="430" as="sourcePoint" />
            <mxPoint x="590.0042712474619" y="430.0023304703363" as="targetPoint" />
          </mxGeometry>
        </mxCell>
        <mxCell id="qxCmKYgzLAo6J0Ybhflr-10" value="" style="endArrow=classic;html=1;rounded=0;exitX=0.871;exitY=0.813;exitDx=0;exitDy=0;exitPerimeter=0;" edge="1" parent="1" source="gi2HxUZvkKw9CPgbURjt-3">
          <mxGeometry width="50" height="50" relative="1" as="geometry">
            <mxPoint x="600" y="460" as="sourcePoint" />
            <mxPoint x="680" y="460" as="targetPoint" />
          </mxGeometry>
        </mxCell>
        <mxCell id="qxCmKYgzLAo6J0Ybhflr-11" value="订单请求" style="text;html=1;align=center;verticalAlign=middle;resizable=0;points=[];autosize=1;strokeColor=none;fillColor=none;" vertex="1" parent="1">
          <mxGeometry x="595" y="408" width="70" height="30" as="geometry" />
        </mxCell>
        <mxCell id="qxCmKYgzLAo6J0Ybhflr-12" value="订单" style="text;html=1;align=center;verticalAlign=middle;resizable=0;points=[];autosize=1;strokeColor=none;fillColor=none;" vertex="1" parent="1">
          <mxGeometry x="605" y="458" width="50" height="30" as="geometry" />
        </mxCell>
        <mxCell id="qxCmKYgzLAo6J0Ybhflr-13" value="订书信息" style="html=1;dashed=0;whiteSpace=wrap;shape=partialRectangle;right=0;left=0;" vertex="1" parent="1">
          <mxGeometry x="350" y="610" width="100" height="30" as="geometry" />
        </mxCell>
        <mxCell id="qxCmKYgzLAo6J0Ybhflr-14" value="" style="endArrow=classic;html=1;exitX=0;exitY=1;exitDx=0;exitDy=0;entryX=0.5;entryY=0;entryDx=0;entryDy=0;curved=1;" edge="1" parent="1" source="gi2HxUZvkKw9CPgbURjt-3" target="qxCmKYgzLAo6J0Ybhflr-13">
          <mxGeometry width="50" height="50" relative="1" as="geometry">
            <mxPoint x="470" y="600" as="sourcePoint" />
            <mxPoint x="520" y="550" as="targetPoint" />
            <Array as="points">
              <mxPoint x="430" y="500" />
            </Array>
          </mxGeometry>
        </mxCell>
        <mxCell id="qxCmKYgzLAo6J0Ybhflr-15" value="订书&lt;br&gt;信息" style="text;html=1;align=center;verticalAlign=middle;resizable=0;points=[];autosize=1;strokeColor=none;fillColor=none;" vertex="1" parent="1">
          <mxGeometry x="435" y="503" width="50" height="40" as="geometry" />
        </mxCell>
        <mxCell id="W07ms_VHn1EZhvTTtWB1-1" value="图书订书系统1层数据流图" style="text;html=1;align=center;verticalAlign=middle;resizable=0;points=[];autosize=1;strokeColor=none;fillColor=none;fontSize=18;" vertex="1" parent="1">
          <mxGeometry x="35" y="125" width="230" height="40" as="geometry" />
        </mxCell>
      </root>
    </mxGraphModel>
  </diagram>
  <diagram id="NcbvHfIVmEalny2sXDwH" name="第 3 页">
    <mxGraphModel dx="1434" dy="764" grid="1" gridSize="10" guides="1" tooltips="1" connect="1" arrows="1" fold="1" page="1" pageScale="1" pageWidth="827" pageHeight="1169" math="0" shadow="0">
      <root>
        <mxCell id="0" />
        <mxCell id="1" parent="0" />
      </root>
    </mxGraphModel>
  </diagram>
</mxfile>
